<svg width="16" height="16" viewBox="0 0 16 16" fill="none" xmlns="http://www.w3.org/2000/svg">
<path fill-rule="evenodd" clip-rule="evenodd" d="M13.5002 7.6L14.5002 6.8C14.9002 6.5 14.9002 5.9 14.7002 5.5L13.5002 3.5C13.3002 3.2 13.0002 3 12.6002 3C12.5002 3 12.4002 3 12.3002 3.1L11.1002 3.5C11.0257 3.46277 10.9513 3.41168 10.8717 3.35706C10.7374 3.26495 10.5885 3.16277 10.4002 3.1L10.1002 1.8C10.1002 1.3 9.7002 1 9.2002 1H6.8002C6.3002 1 5.9002 1.3 5.8002 1.8L5.6002 3.1C5.3002 3.2 5.1002 3.3 4.9002 3.4L4.9002 3.4L3.7002 3H3.4002C3.0002 3 2.7002 3.2 2.5002 3.5L1.3002 5.5C1.1002 5.9 1.2002 6.4 1.6002 6.8L2.5002 7.7V8.5L1.6002 9.2C1.2002 9.5 1.1002 10.1 1.4002 10.5L2.6002 12.5C2.7002 12.8 3.0002 13 3.4002 13C3.5002 13 3.6002 13 3.7002 12.9L4.9002 12.5C4.97465 12.5372 5.04911 12.5883 5.12872 12.6429L5.12874 12.643C5.26298 12.7351 5.41189 12.8372 5.6002 12.9L5.9002 14.2C6.0002 14.7 6.4002 15 6.9002 15H9.3002C9.8002 15 10.2002 14.7 10.3002 14.2L10.6002 12.9L10.6002 12.9C10.8002 12.8 11.0002 12.7 11.3002 12.5L12.5002 12.9C12.5502 12.9 12.6002 12.925 12.6502 12.95C12.7002 12.975 12.7502 13 12.8002 13C13.2002 13 13.5002 12.8 13.7002 12.5L14.8002 10.5C15.0002 10.1 15.0002 9.6 14.6002 9.2L13.5002 8.4V7.6ZM5.0002 8C5.0002 9.7 6.3002 11 8.0002 11C9.7002 11 11.0002 9.6 11.0002 8C11.0002 6.3 9.7002 5 8.0002 5C6.3002 5 5.0002 6.3 5.0002 8ZM6.0002 7.9C6.0002 6.8 6.9002 6 8.0002 6C9.2002 6 10.0002 6.9 10.0002 8V8.1C10.0002 9.2 9.1002 10 8.0002 10H7.9002C6.8002 10 6.0002 9.1 6.0002 8V7.9ZM10.9002 11.4L12.6002 12L13.8002 10L12.4002 8.8C12.5002 8.3 12.5002 7.7 12.4002 7.2L13.8002 6L12.6002 4L11.0002 4.6C10.8603 4.51605 10.7282 4.43209 10.5995 4.35033C10.2685 4.13992 9.96027 3.94403 9.60019 3.8L9.2002 2H6.8002L6.5002 3.8C6.0002 4 5.5002 4.2 5.1002 4.6L3.4002 4L2.2002 6L3.6002 7.2C3.5002 7.7 3.5002 8.3 3.6002 8.8L2.2002 10L3.4002 12L5.0002 11.4C5.14012 11.484 5.27221 11.5679 5.40086 11.6497C5.7319 11.8601 6.04012 12.056 6.4002 12.2L6.8002 14H9.2002L9.5002 12.2C10.0002 12 10.5002 11.7 10.9002 11.4Z" fill="#64C7C3"/>
</svg>
